<svg width="100" height="100" viewBox="0 0 100 100" fill="none" xmlns="http://www.w3.org/2000/svg">
<circle cx="50" cy="50" r="50" fill="#F469A9"/>
<path d="M48.7051 50.5566C48.7754 50.5684 48.8457 50.5742 48.916 50.5742C48.998 50.5742 49.0801 50.5742 49.1621 50.5742C50.1816 50.5742 51.1426 50.3574 52.0449 49.9238C52.959 49.4785 53.7559 48.916 54.4355 48.2363C55.1152 47.5566 55.6484 46.8008 56.0352 45.9688C56.4336 45.1367 56.6328 44.3281 56.6328 43.543C56.6328 42.9805 56.5273 42.4473 56.3164 41.9434C56.1172 41.4395 55.7949 41 55.3496 40.625C54.916 40.25 54.3535 39.9512 53.6621 39.7285C52.9824 39.5059 52.168 39.3945 51.2188 39.3945C50.1523 39.3945 49.2324 39.4941 48.459 39.6934C47.6973 39.8926 47.0352 40.1504 46.4727 40.4668C45.9219 40.7832 45.4531 41.1465 45.0664 41.5566C44.6914 41.9668 44.3633 42.3887 44.082 42.8223C43.8125 43.2559 43.5664 43.6777 43.3438 44.0879C43.1211 44.498 42.8867 44.8613 42.6406 45.1777C42.4062 45.4941 42.1426 45.752 41.8496 45.9512C41.5566 46.1504 41.1934 46.25 40.7598 46.25C40.1738 46.25 39.7344 46.1035 39.4414 45.8105C39.1484 45.5059 39.002 45.084 39.002 44.5449C39.002 44.041 39.1367 43.4961 39.4062 42.9102C39.6875 42.3242 40.0801 41.7383 40.584 41.1523C41.0996 40.5664 41.7266 40.0039 42.4648 39.4648C43.2031 38.9141 44.0293 38.4336 44.9434 38.0234C45.8691 37.6016 46.877 37.2676 47.9668 37.0215C49.0566 36.7637 50.2109 36.6348 51.4297 36.6348C52.625 36.6348 53.7676 36.7871 54.8574 37.0918C55.959 37.3965 56.9316 37.8535 57.7754 38.4629C58.6191 39.0605 59.2871 39.8164 59.7793 40.7305C60.2832 41.6445 60.5352 42.7109 60.5352 43.9297C60.5352 44.75 60.3828 45.5352 60.0781 46.2852C59.7852 47.0234 59.3867 47.7207 58.8828 48.377C58.3789 49.0215 57.7871 49.6191 57.1074 50.1699C56.4395 50.709 55.7246 51.1895 54.9629 51.6113C54.2012 52.0332 53.416 52.3906 52.6074 52.6836C51.8105 52.9766 51.0371 53.1875 50.2871 53.3164C50.3926 53.8672 50.5625 54.4883 50.7969 55.1797C51.043 55.8594 51.3359 56.5098 51.6758 57.1309C52.0273 57.7402 52.4141 58.2617 52.8359 58.6953C53.2578 59.1289 53.7031 59.3633 54.1719 59.3984C54.2656 59.4102 54.3535 59.416 54.4355 59.416C54.5176 59.416 54.5996 59.416 54.6816 59.416C55.5371 59.416 56.2988 59.2754 56.9668 58.9941C57.6348 58.7129 58.1914 58.4023 58.6367 58.0625C59.1641 57.6758 59.6211 57.2246 60.0078 56.709C60.3711 56.2988 60.7402 56.0938 61.1152 56.0938C61.3496 56.0938 61.5488 56.1758 61.7129 56.3398C61.877 56.5039 61.959 56.7266 61.959 57.0078C61.959 57.2773 61.8711 57.5938 61.6953 57.957C61.5312 58.3086 61.2441 58.6777 60.834 59.0645C59.627 60.2012 58.4434 61.0332 57.2832 61.5605C56.1348 62.0762 55.0449 62.334 54.0137 62.334C53.1699 62.334 52.3906 62.0938 51.6758 61.6133C50.9609 61.1328 50.3105 60.4824 49.7246 59.6621C49.1387 58.8418 48.6055 57.8867 48.125 56.7969C47.6445 55.6953 47.2168 54.5352 46.8418 53.3164C46.6309 53.7969 46.4141 54.3652 46.1914 55.0215C45.9688 55.666 45.7285 56.334 45.4707 57.0254C45.2129 57.7168 44.9434 58.4023 44.6621 59.082C44.3809 59.75 44.0703 60.3535 43.7305 60.8926C43.3906 61.4199 43.0273 61.8477 42.6406 62.1758C42.2539 62.5039 41.832 62.668 41.375 62.668C41 62.668 40.6953 62.6094 40.4609 62.4922C40.2266 62.375 40.0449 62.2285 39.916 62.0527C39.7871 61.877 39.6934 61.6836 39.6348 61.4727C39.5879 61.2617 39.5645 61.0625 39.5645 60.875C39.5645 60.6055 39.5996 60.3301 39.6699 60.0488C39.7402 59.7676 39.8398 59.5039 39.9688 59.2578L45.1543 49.7656C45.5996 48.9688 46.0449 48.2012 46.4902 47.4629C46.9473 46.7129 47.3867 46.0508 47.8086 45.4766C48.2422 44.9023 48.6465 44.4453 49.0215 44.1055C49.4082 43.7539 49.7539 43.5781 50.0586 43.5781C50.1406 43.5781 50.2402 43.5957 50.3574 43.6309C50.4746 43.6543 50.5801 43.707 50.6738 43.7891C50.7676 43.8594 50.8496 43.9707 50.9199 44.123C50.9902 44.2637 51.0254 44.4453 51.0254 44.668C51.0254 44.8906 50.9609 45.2012 50.832 45.5996C50.7031 45.998 50.5332 46.4551 50.3223 46.9707C50.1113 47.4863 49.8652 48.0547 49.584 48.6758C49.3027 49.2852 49.0098 49.9121 48.7051 50.5566Z" fill="#F4FA9C"/>
</svg>
